<?xml version="1.0" encoding="UTF-8"?>
<svg width="21px" height="20px" viewBox="0 0 21 20" version="1.1" xmlns="http://www.w3.org/2000/svg" xmlns:xlink="http://www.w3.org/1999/xlink">
    <!-- Generator: Sketch 50.2 (55047) - http://www.bohemiancoding.com/sketch -->
    <title>github</title>
    <desc>Created with Sketch.</desc>
    <defs></defs>
    <g id="home" stroke="none" stroke-width="1" fill="none" fill-rule="evenodd">
        <g id="desktop" transform="translate(-813.000000, -30.000000)" fill="#A7AEB4" fill-rule="nonzero">
            <path d="M832.073753,35.1082984 C831.159627,33.5420513 829.919674,32.3020513 828.353566,31.3880186 C826.787226,30.4739394 825.077249,30.0170163 823.222424,30.0170163 C821.367832,30.0170163 819.657296,30.4740793 818.091282,31.3880186 C816.525035,32.3020047 815.285128,33.5420513 814.371002,35.1082984 C813.457016,36.6744988 813,38.3848019 813,40.2391608 C813,42.4666667 813.649883,44.469697 814.949977,46.2487646 C816.24993,48.027972 817.929277,49.2591142 819.987879,49.942331 C820.227506,49.9868065 820.404895,49.9555245 820.520233,49.8492774 C820.635618,49.7428904 820.69324,49.6096503 820.69324,49.4501166 C820.69324,49.4234965 820.690956,49.1840093 820.686527,48.7313753 C820.681958,48.2787413 820.679814,47.8838695 820.679814,47.5469464 L820.37366,47.5999068 C820.178462,47.6356643 819.932214,47.6508159 819.634918,47.6465268 C819.337762,47.6423776 819.029277,47.6112354 818.709883,47.5533333 C818.39035,47.4959441 818.093147,47.3628438 817.818042,47.1543124 C817.543077,46.9457809 817.347879,46.6728205 817.232494,46.3358508 L817.099394,46.0295571 C817.010676,45.825641 816.871002,45.5991142 816.680186,45.3508159 C816.489371,45.1022844 816.29641,44.9337995 816.101212,44.8450816 L816.008019,44.7783683 C815.945921,44.7340326 815.888298,44.6805594 815.835012,44.6185082 C815.781772,44.5564569 815.741911,44.494359 815.715291,44.4321678 C815.688625,44.3699301 815.710723,44.3188811 815.781818,44.2788345 C815.852914,44.2387879 815.981399,44.2193473 816.167832,44.2193473 L816.433939,44.2591142 C816.611422,44.2946853 816.830956,44.4009324 817.092821,44.5785082 C817.354545,44.7559441 817.569697,44.98662 817.738322,45.2704429 C817.942517,45.634359 818.188531,45.911655 818.477063,46.1024709 C818.765361,46.2932867 819.056037,46.3885315 819.348811,46.3885315 C819.641585,46.3885315 819.894452,46.3663403 820.107506,46.3221911 C820.320326,46.2778089 820.52,46.2110956 820.706434,46.1224242 C820.786294,45.5276457 821.00373,45.0707226 821.358555,44.7513287 C820.852821,44.6981818 820.398135,44.6181352 819.994266,44.5117016 C819.590629,44.4051282 819.17352,44.2321678 818.743217,43.9923543 C818.312681,43.7528671 817.955524,43.4554779 817.671655,43.1006993 C817.387739,42.7457343 817.154732,42.2797203 816.97296,41.7030769 C816.791096,41.1262005 816.70014,40.4607459 816.70014,39.7065268 C816.70014,38.632634 817.050723,37.7187879 817.751748,36.9644755 C817.423357,36.1571096 817.454359,35.252028 817.844848,34.249324 C818.102191,34.1693706 818.483823,34.2293706 818.989557,34.428951 C819.495385,34.6286247 819.865734,34.7996737 820.100979,34.9414918 C820.336224,35.0832634 820.524709,35.2034033 820.666713,35.3008392 C821.492121,35.0702098 822.343916,34.9548718 823.222331,34.9548718 C824.100746,34.9548718 824.952727,35.0702098 825.778182,35.3008392 L826.283963,34.9815385 C826.629837,34.7684848 827.038275,34.5732401 827.508298,34.3957576 C827.978601,34.2183683 828.338228,34.1695105 828.586807,34.2494639 C828.985967,35.2522145 829.021538,36.1572494 828.693054,36.9646154 C829.394033,37.7189277 829.744755,38.633007 829.744755,39.7066667 C829.744755,40.4608858 829.653473,41.1284382 829.471888,41.7097436 C829.29007,42.2911422 829.055058,42.75669 828.76676,43.107366 C828.478135,43.4579953 828.118695,43.7530536 827.688392,43.9924942 C827.257995,44.2321212 826.840746,44.4050816 826.43711,44.511655 C826.033287,44.6182284 825.578601,44.6983217 825.072867,44.7515618 C825.534126,45.1507226 825.764802,45.7807925 825.764802,46.6414918 L825.764802,49.4497436 C825.764802,49.6092774 825.82028,49.7424709 825.931329,49.8489044 C826.042238,49.9551515 826.217389,49.9864336 826.457016,49.9419114 C828.515897,49.2587879 830.195245,48.0275991 831.495152,46.2483916 C832.794918,44.469324 833.445035,42.4662937 833.445035,40.2387879 C833.444569,38.384662 832.987319,36.6744988 832.073753,35.1082984 Z" id="github"></path>
        </g>
    </g>
</svg>