<?xml version="1.0" encoding="UTF-8"?>
<svg width="46px" height="20px" viewBox="0 0 46 20" version="1.1" xmlns="http://www.w3.org/2000/svg" xmlns:xlink="http://www.w3.org/1999/xlink">
    <!-- Generator: Sketch 50.2 (55047) - http://www.bohemiancoding.com/sketch -->
    <title>code</title>
    <desc>Created with Sketch.</desc>
    <defs></defs>
    <g id="Page-1" stroke="none" stroke-width="1" fill="none" fill-rule="evenodd">
        <g id="desktop" transform="translate(-629.000000, -802.000000)" fill="#FFFFFF" fill-rule="nonzero">
            <g id="beliefs" transform="translate(0.000000, 638.000000)">
                <g id="code" transform="translate(629.000000, 164.000000)">
                    <path d="M1.4004,10.9005 C1.117195,10.9005 0.8379,10.765735 0.6621,10.515735 C0.376945,10.10753 0.476555,9.546985 0.882805,9.261835 L13.736305,0.261835 C14.14451,-0.02332 14.705055,0.07629 14.990205,0.48254 C15.27536,0.890745 15.17575,1.45129 14.7695,1.73644 L1.916,10.73644 C1.75975,10.84777 1.57811,10.9005 1.4004,10.9005 Z" id="Shape"></path>
                    <path d="M14.252,19.9005 C14.074265,19.9005 13.89458,19.847765 13.7364,19.73839 L0.8829,10.73639 C0.47665,10.451235 0.37705,9.89069 0.662195,9.48249 C0.94735,9.07624 1.507895,8.97664 1.916095,9.261785 L14.769595,18.261785 C15.175845,18.54694 15.275445,19.107485 14.9903,19.515685 C14.81452,19.76764 14.53522,19.90045 14.252,19.90045 L14.252,19.9005 Z" id="Shape"></path>
                    <path d="M44.5995,10.9005 C44.421765,10.9005 44.240125,10.847765 44.0839,10.73644 L31.2304,1.73844 C30.822195,1.453285 30.72455,0.89274 31.009695,0.48454 C31.29485,0.076335 31.857345,-0.02131 32.263595,0.263835 L45.117095,9.263835 C45.5253,9.54899 45.622945,10.109535 45.3378,10.517735 C45.16202,10.76578 44.88272,10.900545 44.5995,10.900545 L44.5995,10.9005 Z" id="Shape"></path>
                    <path d="M31.748,19.9005 C31.464795,19.9005 31.18355,19.76769 31.0097,19.515735 C30.724545,19.109485 30.824155,18.548935 31.230405,18.261835 L44.083905,9.261835 C44.4882,8.97668 45.052655,9.074335 45.337805,9.48254 C45.62296,9.890745 45.52335,10.45129 45.1171,10.73644 L32.2616,19.73844 C32.107305,19.847815 31.92566,19.90055 31.74795,19.90055 L31.748,19.9005 Z" id="Shape"></path>
                    <path d="M18.8025,19.9005 C18.675545,19.9005 18.54469,19.8731565 18.42164,19.816515 C17.97047,19.60558 17.77709,19.070415 17.986095,18.621215 L26.378595,0.621215 C26.589535,0.171995 27.124695,-0.023335 27.573895,0.18567 C28.023115,0.39661 28.218445,0.93177 28.00944,1.38097 L19.61894,19.38097 C19.466595,19.70714 19.140425,19.90052 18.80254,19.90052 L18.8025,19.9005 Z" id="Shape"></path>
                </g>
            </g>
        </g>
    </g>
</svg>