<?xml version="1.0" encoding="UTF-8"?>
<svg width="17px" height="16px" viewBox="0 0 17 16" version="1.1" xmlns="http://www.w3.org/2000/svg" xmlns:xlink="http://www.w3.org/1999/xlink">
    <!-- Generator: Sketch 50.2 (55047) - http://www.bohemiancoding.com/sketch -->
    <title>LinkedIn</title>
    <desc>Created with Sketch.</desc>
    <defs></defs>
    <g id="Page-1" stroke="none" stroke-width="1" fill="none" fill-rule="evenodd">
        <g id="desktop" transform="translate(-896.000000, -32.000000)" fill="#A7AEB4" fill-rule="nonzero">
            <g id="menu" transform="translate(307.000000, 0.000000)">
                <path d="M606,41.8095873 L606,48 L602.35635,48 L602.35635,42.2241838 C602.35635,40.7732517 601.829335,39.7830473 600.510454,39.7830473 C599.503656,39.7830473 598.90451,40.4503725 598.640923,41.0958973 C598.544801,41.3266699 598.520058,41.6478752 598.520058,41.9709101 L598.520058,48 L594.875183,48 C594.875183,48 594.924272,38.2176632 594.875183,37.2041401 L598.519703,37.2041401 L598.519703,38.7344101 C598.512312,38.7458553 598.502707,38.7581958 598.495751,38.7692907 L598.519703,38.7692907 L598.519703,38.7344101 C599.003913,37.999854 599.868661,36.9505161 601.804237,36.9505161 C604.202284,36.9504771 606,38.4935158 606,41.8095873 Z M591.062488,32 C589.81558,32 589,32.805563 589,33.8649058 C589,34.9011635 589.791985,35.7311741 591.01411,35.7311741 L591.038457,35.7311741 C592.309513,35.7311741 593.099996,34.9013192 593.099996,33.8649058 C593.076044,32.805563 592.309513,32 591.062488,32 Z M589.216474,48 L592.859966,48 L592.859966,37.2041401 L589.216474,37.2041401 L589.216474,48 Z" id="LinkedIn"></path>
            </g>
        </g>
    </g>
</svg>