<?xml version="1.0" encoding="UTF-8"?>
<svg width="42px" height="42px" viewBox="0 0 42 42" version="1.1" xmlns="http://www.w3.org/2000/svg" xmlns:xlink="http://www.w3.org/1999/xlink">
    <!-- Generator: Sketch 50.2 (55047) - http://www.bohemiancoding.com/sketch -->
    <title>time</title>
    <desc>Created with Sketch.</desc>
    <defs></defs>
    <g id="Page-1" stroke="none" stroke-width="1" fill="none" fill-rule="evenodd">
        <g id="desktop" transform="translate(-630.000000, -720.000000)" fill="#FFFFFF" fill-rule="nonzero">
            <g id="beliefs" transform="translate(0.000000, 638.000000)">
                <g id="time" transform="translate(630.000000, 82.000000)">
                    <path d="M21,0.06445 C15.4475,0.06445 10.123,2.2715 6.1975,6.19745 C2.2717,10.12325 0.0645,15.44745 0.0645,20.99995 C0.0645,26.55245 2.27155,31.87695 6.1975,35.80245 C10.1233,39.72825 15.4475,41.93545 21,41.93545 C26.5525,41.93545 31.877,39.7284 35.8025,35.80245 C39.7283,31.87665 41.9355,26.55245 41.9355,20.99995 C41.9276875,15.44895 39.72065,10.12895 35.797,6.20295 C31.8712,2.2791 26.551,0.07195 21,0.06445 Z M21,39.93945 C15.9765,39.941403 11.158,37.94725 7.6055,34.39645 C4.05275,30.8437 2.0565,26.02745 2.0545,21.00395 C2.0545,15.98045 4.04865,11.16195 7.6015,7.60945 C11.1523,4.0567 15.9705,2.06045 20.994,2.06045 C26.0175,2.058497 30.834,4.0546 34.3865,7.60745 C37.93925,11.15825 39.9355,15.97645 39.9355,20.99995 C39.9296405,26.02145 37.93355,30.83395 34.383,34.38495 C30.83415,37.93575 26.0215,39.93395 21,39.93945 Z" id="Shape"></path>
                    <path d="M21,20.6095 L21,8.039 C21,7.4882 20.552735,7.039 20,7.039 C19.447265,7.039 19,7.48822 19,8.039 L19,21 C19,21.25 19.091795,21.490235 19.259765,21.6758 L25.904265,28.9298 C26.27731,29.34386 26.915965,29.377065 27.330065,29.00597 C27.529285,28.82628 27.648425,28.57628 27.662095,28.30872 C27.6757665,28.04114 27.58397,27.77942 27.404285,27.58022 L21,20.6095 Z" id="Shape"></path>
                </g>
            </g>
        </g>
    </g>
</svg>