<?xml version="1.0" encoding="UTF-8"?>
<svg width="20px" height="16px" viewBox="0 0 20 16" version="1.1" xmlns="http://www.w3.org/2000/svg" xmlns:xlink="http://www.w3.org/1999/xlink">
    <!-- Generator: Sketch 50.2 (55047) - http://www.bohemiancoding.com/sketch -->
    <title>Shape</title>
    <desc>Created with Sketch.</desc>
    <defs></defs>
    <g id="Page-1" stroke="none" stroke-width="1" fill="none" fill-rule="evenodd">
        <g id="desktop" transform="translate(-975.000000, -32.000000)" fill="#A7AEB4" fill-rule="nonzero">
            <g id="menu" transform="translate(307.000000, 0.000000)">
                <path d="M688,33.8930518 C687.263888,34.2142948 686.47405,34.4321581 685.644179,34.5294225 C686.491533,34.029679 687.140162,33.2370157 687.447581,32.2953981 C686.652743,32.7581927 685.775389,33.094241 684.84055,33.2764107 C684.091954,32.4898948 683.027149,32 681.846101,32 C679.58028,32 677.74312,33.8093696 677.74312,36.0396927 C677.74312,36.3560113 677.779362,36.6649595 677.849362,36.9603898 C674.440011,36.791738 671.416836,35.1830125 669.393466,32.7384952 C669.039773,33.3342479 668.838563,34.0284238 668.838563,34.7694295 C668.838563,36.1713956 669.563434,37.4084113 670.66324,38.1321334 C669.990853,38.1099898 669.358466,37.9278201 668.804838,37.6250194 L668.804838,37.6754862 C668.804838,39.6325548 670.219579,41.2659021 672.095464,41.6376441 C671.751771,41.7287289 671.389352,41.7791957 671.014417,41.7791957 C670.749482,41.7791957 670.493272,41.7533508 670.242062,41.7041071 C670.764449,43.3103864 672.27919,44.4784609 674.073866,44.5104854 C672.670367,45.5936546 670.900691,46.2373959 668.978564,46.2373959 C668.647387,46.2373959 668.321177,46.2176984 668,46.1820047 C669.815918,47.3304138 671.971771,48 674.288834,48 C681.836166,48 685.961663,41.8432126 685.961663,36.5037426 L685.947905,35.9806324 C686.753985,35.4143937 687.451339,34.7029665 688,33.8930518 Z" id="Shape"></path>
            </g>
        </g>
    </g>
</svg>